<svg version="1.2" xmlns="http://www.w3.org/2000/svg" viewBox="0 0 50 50" width="44" height="44">
	<title>icons8-ai-chatting</title>
	<style>
		.s0 { fill: #000000 } 
	</style>
	<path class="s0" d="m25 4.5c-9.8 0-19.06 7.49-21.08 17.04q0 0.05 0 0.09c-2.36 1.6-3.96 4.75-3.96 8.37 0 5.24 3.36 9.5 7.5 9.5 0.33 0 0.63-0.16 0.82-0.43 0.18-0.27 0.23-0.61 0.11-0.92-0.01-0.04-1.43-3.91-1.43-8.65 0-4.99 1.35-7.48 1.37-7.51 0.17-0.31 0.17-0.68-0.01-0.99-0.18-0.31-0.51-0.5-0.86-0.5q-0.64 0.01-1.24 0.14c2.37-8.03 10.35-14.14 18.78-14.14 7.99 0 15.69 5.54 18.43 13.08q-0.44-0.08-0.91-0.08c-0.35 0-0.68 0.19-0.86 0.5-0.18 0.3-0.18 0.68-0.01 0.99 0.02 0.03 1.37 2.51 1.37 7.51 0 3.94-0.97 7.27-1.31 8.31-1.15 0.93-2.89 2.22-4.93 3.34-0.76-0.84-1.94-1.28-3.13-1l-1.78 0.41c-0.85 0.19-1.56 0.7-2.02 1.44-0.46 0.73-0.6 1.6-0.41 2.44 0.34 1.5 1.68 2.51 3.15 2.51q0.36 0 0.73-0.08l1.78-0.41c0.85-0.2 1.56-0.71 2.02-1.44 0.38-0.61 0.53-1.32 0.46-2.03 2.15-1.16 3.99-2.51 5.23-3.51 4-0.19 7.21-4.37 7.21-9.48 0-3.76-1.74-7.01-4.25-8.55q0.01-0.11-0.01-0.22c-2.61-9.12-11.34-15.73-20.76-15.73zm-13 14.5c-0.55 0-1 0.45-1 1v12c0 0.55 0.45 1 1 1h16.04c-0.5 1.06-1.3 2.48-1.9 3.48-0.2 0.34-0.19 0.76 0.03 1.08 0.19 0.28 0.5 0.44 0.83 0.44q0.08 0 0.16-0.01c6.19-1.03 11.25-5.04 11.46-5.21 0.24-0.19 0.38-0.48 0.38-0.78v-12c0-0.55-0.45-1-1-1zm6.5 4c1.4 0 2.5 1.32 2.5 3 0 1.68-1.1 3-2.5 3-1.4 0-2.5-1.32-2.5-3 0-1.68 1.1-3 2.5-3zm13 0c1.4 0 2.5 1.32 2.5 3 0 1.68-1.1 3-2.5 3-1.4 0-2.5-1.32-2.5-3 0-1.68 1.1-3 2.5-3z"/>
</svg>