<svg version="1.2" xmlns="http://www.w3.org/2000/svg" viewBox="0 0 50 50" width="44" height="44">
	<title>icons8-services</title>
	<style>
		.s0 { fill: #000000 } 
	</style>
	<path class="s0" d="m32.22 2.06l-0.78 0.31-2.81 1.1-0.79 0.31 0.19 0.81 0.6 3q-0.44 0.45-0.94 1l-2.97-0.65-0.81-0.19-0.32 0.75-1.21 2.81-0.32 0.75 0.69 0.47 2.56 1.72q-0.04 0.73 0 1.47l-2.62 1.62-0.72 0.44 0.31 0.78 1.1 2.81 0.31 0.79 0.81-0.19 3-0.6q0.46 0.55 1 1l-0.69 3-0.18 0.82 0.78 0.34 2.81 1.19 0.75 0.31 0.47-0.69 1.72-2.56q0.73 0.05 1.47 0l1.62 2.66 0.44 0.68 0.78-0.28 3.59-1.43-0.18-0.82-0.69-3.28q0.56-0.47 1.03-1.03l3.03 0.78 0.84 0.22 0.32-0.78 1.22-2.81 0.34-0.78-0.75-0.47-2.63-1.6q0.05-0.73 0-1.47l2.63-1.62 0.72-0.44-0.31-0.78-1.1-2.81-0.31-0.78-0.84 0.18-3.07 0.69q-0.46-0.54-1-1l0.66-3 0.19-0.81-0.75-0.31-2.82-1.22-0.78-0.31-0.47 0.71-1.59 2.54c-0.46-0.05-0.96-0.01-1.47 0.03l-1.62-2.66zm-0.85 2.47l1.47 2.41 0.38 0.59 0.68-0.16c0.71-0.15 1.38-0.07 2.29 0.03l0.62 0.07 0.34-0.53 1.44-2.29 1.25 0.54-0.62 2.68-0.16 0.66 0.56 0.37q0.92 0.65 1.57 1.57l0.37 0.56 0.66-0.16 2.75-0.62 0.5 1.25-2.41 1.44-0.53 0.34 0.06 0.62c0.1 0.84 0.1 1.54 0 2.38l-0.06 0.62 0.53 0.35 2.38 1.47-0.5 1.18-2.79-0.68-0.68-0.16-0.38 0.56q-0.65 0.92-1.56 1.57l-0.53 0.37 0.12 0.66 0.63 2.97-1.25 0.46-1.44-2.37-0.34-0.53-0.63 0.06c-0.83 0.09-1.54 0.09-2.37 0l-0.63-0.06-0.31 0.5-1.53 2.31-1.28-0.56 0.59-2.69 0.16-0.62-0.53-0.41q-0.92-0.65-1.57-1.56l-0.37-0.53-0.66 0.12-2.69 0.56-0.46-1.25 2.37-1.47 0.56-0.34-0.09-0.62c-0.09-0.84-0.09-1.54 0-2.38l0.09-0.59-0.53-0.35-2.31-1.53 0.53-1.28 2.72 0.63 0.59 0.12 0.38-0.47c0.57-0.66 1.15-1.25 1.65-1.75l0.38-0.37-0.09-0.5-0.57-2.69zm3.63 5.47c-2.75 0-5 2.25-5 5 0 2.75 2.25 5 5 5 2.75 0 5-2.25 5-5 0-2.75-2.25-5-5-5zm0 2c1.67 0 3 1.33 3 3 0 1.67-1.33 3-3 3-1.67 0-3-1.33-3-3 0-1.67 1.33-3 3-3zm-21.47 8l-0.13 0.84-0.5 3.25q-0.81 0.28-1.56 0.69l-3.44-2.5-3.5 3.5 0.47 0.69 1.91 2.75q-0.41 0.8-0.69 1.59l-3.28 0.59-0.81 0.16v4.88l0.81 0.15 3.28 0.6q0.27 0.81 0.69 1.56l-1.97 2.65-0.53 0.69 3.5 3.5 0.69-0.47 2.75-1.9q0.8 0.41 1.59 0.68l0.5 3.25 0.13 0.85h4.9l0.13-0.81 0.62-3.29q0.82-0.27 1.56-0.68l3.44 2.5 3.5-3.5-0.47-0.69-2-2.78q0.41-0.79 0.69-1.56l3.38-0.6 0.81-0.15v-4.91l-4.22-0.63q-0.26-0.81-0.66-1.56l2-2.75 0.47-0.69-0.56-0.59-2.31-2.41-0.6-0.62-0.72 0.5-2.75 2q-0.79-0.41-1.56-0.69l-0.5-3.25-0.12-0.84zm1.72 2h1.5l0.56 3.56 0.56 0.19c0.9 0.3 1.74 0.58 2.41 1l0.56 0.34 0.53-0.37 2.5-1.82 1.13 1.19-1.82 2.53-0.4 0.53 0.37 0.57c0.45 0.72 0.8 1.55 0.97 2.31l0.16 0.66 0.65 0.09 3.07 0.47v1.53l-3.07 0.53-0.59 0.09-0.19 0.57c-0.3 0.9-0.58 1.74-1 2.4l-0.37 0.57 0.4 0.53 1.82 2.53-1.13 1.09-2.5-1.81-0.53-0.38-0.56 0.35c-0.72 0.45-1.55 0.8-2.32 0.97l-0.62 0.15-0.13 0.66-0.53 2.97h-1.53l-0.56-3.56-0.56-0.19c-0.9-0.3-1.74-0.58-2.41-1l-0.56-0.35-0.53 0.38-2.53 1.72-1.1-1.1 1.78-2.4 0.44-0.56-0.37-0.57c-0.45-0.72-0.81-1.52-0.97-2.28l-0.16-0.65-0.66-0.13-2.96-0.53v-1.56l2.96-0.53 0.6-0.13 0.19-0.53c0.3-0.9 0.58-1.74 1-2.41l0.34-0.56-0.38-0.53-1.71-2.53 1.12-1.1 2.5 1.82 0.53 0.37 0.56-0.34c0.72-0.45 1.55-0.8 2.32-0.97l0.65-0.16 0.1-0.65zm0.75 7c-2.75 0-5 2.25-5 5 0 2.74 2.25 5 5 5 2.74 0 5-2.26 5-5 0-2.75-2.26-5-5-5zm0 2c1.65 0 3 1.34 3 3 0 1.65-1.35 3-3 3-1.66 0-3-1.35-3-3 0-1.66 1.34-3 3-3z"/>
</svg>